<svg width="51" height="49" viewBox="0 0 51 49" fill="none" xmlns="http://www.w3.org/2000/svg">
<g opacity="0.33">
<path d="M0.327148 0L38.2113 48.4742H49.8931L12.0636 0H0.327148Z" fill="white"/>
</g>
<path opacity="0.33" d="M9.71668 38.7029V19.4879L6.60516 14.9571V38.6484C6.60516 45.4719 6.38681 46.4545 0 47.2187V48.4196H16.3764V47.2187C9.88044 46.509 9.71668 45.4719 9.71668 38.7029Z" fill="white"/>
<path opacity="0.33" d="M33.8993 1.20095C40.2861 1.96519 40.5045 2.94777 40.5045 9.77128V28.9863L43.616 33.5171V9.82587C43.616 3.00236 43.8344 2.01978 50.2212 1.31013V0.109192H33.8447V1.20095H33.8993Z" fill="white"/>
<path d="M33.0263 25.1105C34.5547 25.1105 35.4827 24.51 35.4827 22.9816V21.7806C35.4827 20.2522 34.5547 19.5971 33.0263 19.5971H26.9124C25.111 19.5971 23.8555 20.8526 23.8555 22.3811V26.0385C23.8555 27.567 25.111 28.7679 26.9124 28.7679C27.4583 28.7679 35.4827 28.7679 35.4827 28.7679V26.9665C35.4827 26.9665 27.5129 26.9665 26.9124 26.9665C26.3119 26.9665 26.2573 26.366 26.2573 26.366V25.1105C26.2573 25.1105 32.4258 25.1105 33.0263 25.1105ZM26.3119 22.0536C26.3119 22.0536 26.3119 21.4531 26.9124 21.4531H32.4804C33.0809 21.4531 33.0809 22.2173 33.0809 22.3811C33.0809 22.5449 33.0809 23.3091 32.4804 23.3091C31.8799 23.3091 26.3119 23.3091 26.3119 23.3091V22.0536Z" fill="white"/>
<path d="M46.8369 19.5971C46.2911 19.5971 38.8671 19.5971 38.8671 19.5971V21.3985C38.8671 21.3985 46.2365 21.3985 46.8369 21.3985C47.4374 21.3985 47.492 21.999 47.492 21.999V23.2545C47.492 23.2545 41.3781 23.2545 40.7231 23.2545C39.1946 23.2545 38.2666 23.855 38.2666 25.3834V26.5844C38.2666 28.1129 39.1946 28.7679 40.7231 28.7679H46.8369C48.6383 28.7679 49.8939 27.5124 49.8939 25.9839V22.3265C49.8939 20.8526 48.6383 19.5971 46.8369 19.5971ZM47.4374 26.366C47.4374 26.366 47.4374 26.9665 46.8369 26.9665H41.2689C40.6685 26.9665 40.6685 26.2023 40.6685 26.0385C40.6685 25.8747 40.6685 25.1105 41.2689 25.1105C41.8694 25.1105 47.4374 25.1105 47.4374 25.1105V26.366Z" fill="white"/>
<path d="M3.05753 26.0935V22.3815C3.05753 22.3815 3.05753 21.7811 3.658 21.7811H11.3003V19.6521H3.38506C1.58365 19.6521 0.328125 20.9077 0.328125 22.4361V26.0935C0.328125 27.622 1.58365 28.8229 3.38506 28.8229C3.93094 28.8229 11.3003 28.8229 11.3003 28.8229V26.694C11.3003 26.694 4.25847 26.694 3.658 26.694C3.05753 26.694 3.05753 26.0935 3.05753 26.0935Z" fill="white"/>
<path d="M16.8134 22.3811C16.8134 22.3811 16.8134 21.7806 17.4139 21.7806H22.0538V19.6517H17.1409C15.3395 19.6517 14.084 20.9072 14.084 22.4357C14.084 23.6366 14.084 28.8225 14.084 28.8225H16.8134V22.3811Z" fill="white"/>
</svg>
