<svg width="100" height="100" viewBox="0 0 100 100" fill="none" xmlns="http://www.w3.org/2000/svg">
<rect width="100" height="100" fill="#EB4D4B"/>
<g opacity="0.33">
<path d="M25.3271 26L63.2113 74.4742H74.8931L37.0636 26H25.3271Z" fill="white"/>
</g>
<path opacity="0.33" d="M34.7167 64.7029V45.4879L31.6052 40.9571V64.6484C31.6052 71.4719 31.3868 72.4545 25 73.2187V74.4196H41.3764V73.2187C34.8804 72.509 34.7167 71.4719 34.7167 64.7029Z" fill="white"/>
<path opacity="0.33" d="M58.8993 27.201C65.2861 27.9652 65.5045 28.9478 65.5045 35.7713V54.9863L68.616 59.5171V35.8259C68.616 29.0024 68.8344 28.0198 75.2212 27.3101V26.1092H58.8447V27.201H58.8993Z" fill="white"/>
<path d="M58.0263 51.1105C59.5547 51.1105 60.4827 50.51 60.4827 48.9816V47.7806C60.4827 46.2522 59.5547 45.5971 58.0263 45.5971H51.9124C50.111 45.5971 48.8555 46.8526 48.8555 48.3811V52.0385C48.8555 53.567 50.111 54.7679 51.9124 54.7679C52.4583 54.7679 60.4827 54.7679 60.4827 54.7679V52.9665C60.4827 52.9665 52.5129 52.9665 51.9124 52.9665C51.3119 52.9665 51.2573 52.366 51.2573 52.366V51.1105C51.2573 51.1105 57.4258 51.1105 58.0263 51.1105ZM51.3119 48.0536C51.3119 48.0536 51.3119 47.4531 51.9124 47.4531H57.4804C58.0809 47.4531 58.0809 48.2173 58.0809 48.3811C58.0809 48.5449 58.0809 49.3091 57.4804 49.3091C56.8799 49.3091 51.3119 49.3091 51.3119 49.3091V48.0536Z" fill="white"/>
<path d="M71.8369 45.5971C71.2911 45.5971 63.8671 45.5971 63.8671 45.5971V47.3985C63.8671 47.3985 71.2365 47.3985 71.8369 47.3985C72.4374 47.3985 72.492 47.999 72.492 47.999V49.2545C72.492 49.2545 66.3781 49.2545 65.7231 49.2545C64.1946 49.2545 63.2666 49.855 63.2666 51.3834V52.5844C63.2666 54.1129 64.1946 54.7679 65.7231 54.7679H71.8369C73.6383 54.7679 74.8939 53.5124 74.8939 51.9839V48.3265C74.8939 46.8526 73.6383 45.5971 71.8369 45.5971ZM72.4374 52.366C72.4374 52.366 72.4374 52.9665 71.8369 52.9665H66.2689C65.6685 52.9665 65.6685 52.2023 65.6685 52.0385C65.6685 51.8747 65.6685 51.1105 66.2689 51.1105C66.8694 51.1105 72.4374 51.1105 72.4374 51.1105V52.366Z" fill="white"/>
<path d="M28.0575 52.0935V48.3815C28.0575 48.3815 28.0575 47.7811 28.658 47.7811H36.3003V45.6521H28.3851C26.5837 45.6521 25.3281 46.9077 25.3281 48.4361V52.0935C25.3281 53.622 26.5837 54.8229 28.3851 54.8229C28.9309 54.8229 36.3003 54.8229 36.3003 54.8229V52.694C36.3003 52.694 29.2585 52.694 28.658 52.694C28.0575 52.694 28.0575 52.0935 28.0575 52.0935Z" fill="white"/>
<path d="M41.8134 48.3811C41.8134 48.3811 41.8134 47.7806 42.4139 47.7806H47.0538V45.6517H42.1409C40.3395 45.6517 39.084 46.9072 39.084 48.4357C39.084 49.6366 39.084 54.8225 39.084 54.8225H41.8134V48.3811Z" fill="white"/>
</svg>
