<svg xmlns="http://www.w3.org/2000/svg" width="100" height="26" viewBox="0 0 100 26"><defs><clipPath id="rjuta"><path d="M0 15.03h5.318v10.874H0z"/></clipPath><clipPath id="rjutb"><path d="M18.57 2.74h20.053v23.172H18.57z"/></clipPath><clipPath id="rjutc"><path d="M39.17.35h17.516v25.158H39.17z"/></clipPath><clipPath id="rjutd"><path d="M57.39 8.82h15.223v17.088H57.39z"/></clipPath></defs><g><g><g><path fill="#00e3d7" d="M.12 10.15l12.311 15.757h3.798L3.92 10.15z"/></g><g><g><g/><g clip-path="url(#rjuta)"><path fill="#fff" d="M3.169 22.735v-6.24l-1.02-1.465v7.705c0 2.214-.065 2.54-2.149 2.778v.391h5.318v-.39c-2.084-.24-2.15-.565-2.15-2.779"/></g></g><g><path fill="#fff" d="M11.04 10.54c2.084.24 2.149.565 2.149 2.778v6.24l1.02 1.466v-7.706c0-2.213.065-2.539 2.148-2.777v-.391H11.04z"/></g><g><g/><g clip-path="url(#rjutb)"><path fill="#fff" d="M30.095 24.444c-4.739 0-7.796-3.76-7.796-10.119h.03c0-7.489 3.822-10.485 7.521-10.485 3.7 0 6.053 1.712 7.184 6.817h.55l-.642-6.694c-2.17-.857-4.28-1.223-6.511-1.223-6.389 0-11.861 4.371-11.861 11.555 0 6.328 4.035 11.617 11.005 11.617 5.075 0 8.254-3.21 9.048-6.36l-.825-.304c-.917 2.384-3.301 5.196-7.703 5.196"/></g></g><g><g/><g clip-path="url(#rjutc)"><path fill="#fff" d="M54.24 21.106v-6.51c0-4.036-2.048-5.809-4.707-5.809-2.231 0-3.79 1.437-4.86 2.751V7.045c0-3.15.03-5.075.06-6.695L39.17 2.214v.55c2.415 0 2.445 0 2.445 3.027v15.315c0 3.119-.03 3.608-2.445 3.852v.55h7.948v-.55c-2.415-.244-2.445-.733-2.445-3.852v-8.743c.703-1.008 2.078-1.436 3.332-1.436 2.109 0 3.179 1.436 3.179 4.28v5.9c0 3.118-.03 3.607-2.446 3.851v.55h7.948v-.55c-2.415-.244-2.445-.733-2.445-3.852"/></g></g><g><g/><g clip-path="url(#rjutd)"><path fill="#fff" d="M70.963 23.921c.489 0 .886-.275 1.345-.611l.305.305c-.825 1.01-1.59 2.202-3.087 2.202-1.254 0-2.354-.703-2.476-2.262-.703.642-1.498 1.314-2.262 1.772-.703.459-1.498.581-2.568.581-2.262 0-4.83-1.62-4.83-4.035 0-1.987 1.712-3.118 4.921-4.677.826-.398 2.507-1.162 4.8-2.14v-.703c0-3.21-1.1-4.34-3.149-4.34-2.812 0-3.21 1.894-3.057 4.248h-3.087c0-2.568 2.934-5.441 6.878-5.441 2.843 0 5.38 1.1 5.289 5.196l-.153 7.918c-.03 1.712.305 1.987 1.13 1.987zm-3.913-7.826c-2.568.948-3.822 1.682-4.341 2.018-1.315.826-1.987 1.56-1.895 2.874.091 1.528 1.345 3.21 3.21 3.21 1.13 0 2.109-.642 2.934-1.499z"/></g></g><g><path fill="#fff" d="M78.813 21.11v-5.625c0-3.15.03-5.075.06-6.695l-5.563 1.865v.55c2.415 0 2.445 0 2.445 3.026v6.878c0 3.119-.03 3.608-2.445 3.852v.55h7.948v-.55c-2.415-.244-2.445-.733-2.445-3.852"/></g><g><path fill="#fff" d="M77.13 4.998c1.223 0 2.14-.887 2.14-2.08 0-1.192-.917-2.078-2.14-2.078-1.192 0-2.17.886-2.17 2.079 0 1.192.978 2.079 2.17 2.079"/></g><g><path fill="#fff" d="M97.46 21.11v-6.512c0-4.035-1.957-5.808-4.617-5.808-2.231 0-3.79 1.437-4.86 2.751l-.061-2.751-5.442 1.865v.55c2.415 0 2.446 0 2.446 3.026v6.878c0 3.119-.03 3.608-2.446 3.852v.55h7.948v-.55c-2.415-.244-2.445-.733-2.445-3.852v-8.743c.703-1.008 2.078-1.436 3.332-1.436 2.17 0 3.087 1.345 3.087 4.28v5.9c0 3.118-.03 3.607-2.445 3.851v.55h7.948v-.55c-2.415-.244-2.446-.733-2.446-3.852"/></g></g></g></g></svg>